Coordinates
version=1
nRows=18
nColumns=22
inDegrees=yes

Units are S.I. units (second, meters, Newtons, ...)
If the header above contains a line with 'inDegrees', this indicates whether rotational values are in degrees (yes) or radians (no).

endheader
time	pelvis_tilt	pelvis_list	pelvis_rotation	pelvis_tx	pelvis_ty	pelvis_tz	hip_flexion_r	hip_adduction_r	hip_rotation_r	knee_angle_r	ankle_angle_r	subtalar_angle_r	hip_flexion_l	hip_adduction_l	hip_rotation_l	knee_angle_l	ankle_angle_l	subtalar_angle_l	lumbar_extension	lumbar_bending	lumbar_rotation
      0.01000000	      4.76980683	     -3.93597812	      3.52645622	      1.21043326	      0.94244334	     -0.06685691	     -5.60196243	      4.65852400	     -8.68217892	     -7.36944445	      8.64785622	     -0.18487822	     -3.63002839	     -3.36845484	    -11.75639381	    -14.50644645	     21.34147270	     -8.62556314	    -11.77373568	      3.12461998	     -8.67787301
      0.02000000	      4.76695501	     -3.94025799	      3.51951462	      1.21048473	      0.94243969	     -0.06680899	     -5.60340869	      4.66469234	     -8.68662764	     -7.36608367	      8.64965602	     -0.18502232	     -3.63030877	     -3.37485094	    -11.75354709	    -14.50860574	     21.34021738	     -8.62570836	    -11.77048381	      3.11636497	     -8.68290375
      0.03000000	      4.74774822	     -3.95364501	      3.52740878	      1.21059546	      0.94240748	     -0.06678319	     -5.60434420	      4.68274489	     -8.72234929	     -7.33444131	      8.65690515	     -0.18616625	     -3.61398355	     -3.39284150	    -11.75628558	    -14.50930509	     21.33976241	     -8.62500855	    -11.73523963	      3.12049860	     -8.70112431
      0.04000000	      4.74407309	     -3.95805790	      3.51824418	      1.21067429	      0.94240316	     -0.06672205	     -5.60535085	      4.68906377	     -8.72731383	     -7.33409741	      8.65633393	     -0.18620353	     -3.61458346	     -3.40029825	    -11.75328043	    -14.51354770	     21.34059608	     -8.62455060	    -11.72961171	      3.10916412	     -8.70578341
      0.05000000	      4.71434879	     -3.97094631	      3.52207931	      1.21080326	      0.94235580	     -0.06668394	     -5.59338065	      4.70547013	     -8.77525791	     -7.30688993	      8.65028689	     -0.18629485	     -3.58702029	     -3.41832367	    -11.76616387	    -14.51715558	     21.35467285	     -8.61927755	    -11.67989735	      3.10920146	     -8.71621752
      0.06000000	      4.71017766	     -3.97557119	      3.50860373	      1.21087072	      0.94235302	     -0.06661752	     -5.59222705	      4.71136186	     -8.77960682	     -7.30752160	      8.64946170	     -0.18618052	     -3.58628500	     -3.42520060	    -11.76286414	    -14.52274158	     21.35574599	     -8.61854183	    -11.67685388	      3.09898913	     -8.72056022
      0.07000000	      4.63475092	     -4.00665257	      3.49848125	      1.21089831	      0.94222701	     -0.06655275	     -5.48825368	      4.73866580	     -8.82649282	     -7.34732991	      8.62919528	     -0.18329545	     -3.46877158	     -3.46830218	    -11.80389820	    -14.59711824	     21.40540608	     -8.59304853	    -11.58866631	      3.11860241	     -8.71784540
      0.08000000	      4.63054448	     -4.01007077	      3.48323149	      1.21094472	      0.94222599	     -0.06648891	     -5.48800643	      4.74305383	     -8.83030326	     -7.34334534	      8.63081930	     -0.18314906	     -3.46828966	     -3.47290529	    -11.80214671	    -14.59841528	     21.40522306	     -8.59267123	    -11.58891594	      3.11019813	     -8.71928978
      0.09000000	      4.61172881	     -4.01999715	      3.45604408	      1.21101219	      0.94220162	     -0.06641229	     -5.47198877	      4.75223846	     -8.84465963	     -7.33802089	      8.64200298	     -0.18340940	     -3.45668642	     -3.48398705	    -11.83233357	    -14.59629537	     21.40906479	     -8.59007731	    -11.56702774	      3.10750441	     -8.68116720
      0.10000000	      4.60807877	     -4.02325066	      3.43931573	      1.21105742	      0.94219934	     -0.06634875	     -5.46977067	      4.75569204	     -8.84743219	     -7.33813412	      8.64249901	     -0.18355323	     -3.45665070	     -3.48839077	    -11.83216530	    -14.60003360	     21.40961422	     -8.58966669	    -11.56775082	      3.10170640	     -8.68258939
      0.11000000	      4.57426163	     -4.03947160	      3.39343847	      1.21109518	      0.94214243	     -0.06624184	     -5.40796851	      4.76496159	     -8.84675633	     -7.38687040	      8.65284259	     -0.19180810	     -3.41328349	     -3.51118901	    -11.91454383	    -14.63192706	     21.43376326	     -8.57755077	    -11.53413688	      3.10669120	     -8.62874612
      0.12000000	      4.56916136	     -4.04170357	      3.38110045	      1.21115754	      0.94213751	     -0.06618096	     -5.40794475	      4.76857478	     -8.85252726	     -7.38192130	      8.65391255	     -0.19211486	     -3.41307118	     -3.51502288	    -11.91381333	    -14.63325002	     21.43405587	     -8.57691097	    -11.53231003	      3.10132366	     -8.62896436
      0.13000000	      4.55388591	     -4.04597904	      3.36947556	      1.21126265	      0.94211598	     -0.06613705	     -5.40359194	      4.77249124	     -8.88393481	     -7.36788310	      8.65729976	     -0.19490183	     -3.40762352	     -3.52053474	    -11.93327899	    -14.62782851	     21.43825138	     -8.57367532	    -11.50841103	      3.10101112	     -8.60948520
      0.14000000	      4.54975439	     -4.04712874	      3.35829530	      1.21131937	      0.94211369	     -0.06608892	     -5.40198098	      4.77385452	     -8.88962510	     -7.36755980	      8.65727636	     -0.19537108	     -3.40767547	     -3.52276453	    -11.93406700	    -14.63000041	     21.43885222	     -8.57302067	    -11.50852991	      3.09802150	     -8.61091939
      0.15000000	      4.54478221	     -4.04729437	      3.34579756	      1.21136437	      0.94211286	     -0.06605476	     -5.39908950	      4.77253975	     -8.90078774	     -7.36606463	      8.65691513	     -0.19600962	     -3.40667963	     -3.52254289	    -11.93839172	    -14.63106175	     21.43972840	     -8.57232873	    -11.50916187	      3.09788342	     -8.61102572
      0.16000000	      4.53691686	     -4.03884284	      3.33736601	      1.21141972	      0.94210898	     -0.06604492	     -5.38379462	      4.75768984	     -8.96759714	     -7.38567592	      8.65143700	     -0.19981815	     -3.40211163	     -3.51492836	    -11.97950685	    -14.63338081	     21.44187673	     -8.56951545	    -11.50143712	      3.08963777	     -8.60164465
      0.17000000	      4.53366341	     -4.03823034	      3.32947015	      1.21142216	      0.94211682	     -0.06602746	     -5.38014601	      4.75542390	     -8.97176235	     -7.38470371	      8.65191646	     -0.19994978	     -3.39914271	     -3.51364273	    -11.97840207	    -14.63429489	     21.44132355	     -8.56907029	    -11.51061676	      3.09130557	     -8.60473636
      0.18000000	      4.54301305	     -4.02371999	      3.33084012	      1.21140246	      0.94214340	     -0.06604491	     -5.37380852	      4.73452278	     -9.01710307	     -7.41735489	      8.65044594	     -0.20075810	     -3.39943045	     -3.49873640	    -11.98156843	    -14.65326693	     21.42860127	     -8.56819040	    -11.53732523	      3.08332046	     -8.62385359
